<svg xmlns="http://www.w3.org/2000/svg" viewBox="0 0 279.02 855.6"><defs><style>.cls-1{fill:#fff;}</style></defs><title>Asset 2</title><g id="Layer_2" data-name="Layer 2"><g id="Layer_1-2" data-name="Layer 1"><path class="cls-1" d="M272.48,850.05c-2.42-.82-5.16-.77-7.17-2.67l-2.79-.8c-.55,1.58,1.43,4.12-1.46,4.73-2.26.48-2.52-1-2.7-2.4a19.83,19.83,0,0,0,2.41,1.17l-2.45-1.52a7,7,0,0,0-.2-1c-1.61-5-5.56-8.37-8.38-12.48-5.29-7.72-13.23-14-12.55-25.49.62-10.42-2.36-21-2.27-31.54a176.61,176.61,0,0,0-.5-18c-1-10.46-3.29-20.85-4-31.22-1-14.35-8.15-26.88-9.94-40.77-1.64-12.74-3.18-25.53-1.65-38.45a278.77,278.77,0,0,0,1.72-38.15c-.3-16.21-1.89-32.31-2.31-48.49a18.41,18.41,0,0,0-2.92-8.7c-3.51-6-5.2-12.38-6.8-19.08-1.76-7.38-5-14.44-8-21.48-5.87-13.82-12.76-27.12-19.87-40.36-4.82-9-5.94-19.43-7.62-29.53-1.43-8.55-1.28-17.19-.7-25.65.54-7.86,3.37-15.54,5-23.34,2.07-10,8.55-18.61,9-29.14.16-4,.76-8.06,1.18-12.09a11.09,11.09,0,0,1,.49-3c4.16-9.93,6.33-20.29,7.75-31,1.75-13.15,7.22-25.42,10.14-38.31,1.05-4.62,2.3-9.26,2.68-13.94a17.55,17.55,0,0,1,3-8c12.59-21,25.24-42,34.43-64.92,3-7.38,7.3-14.2,10.93-21.32a45.9,45.9,0,0,0,1.82-4.74c-1-3.17-.39-6.42-.52-9.64-3.88-13.13-9.06-25.86-12.28-39.21a18.85,18.85,0,0,0-2.61-6.63c-5.18-7.08-6.12-16.41-11.53-23-5.64-6.9.73-12.21.78-18.25,0-3.78,2-7.55,3.08-11.31,2.35-8,.4-15.61-2.6-22.89-2.52-6.12-5.75-11.92-8-18.23-2.62-7.4-9-12.2-14.47-17.52L196.19,0l-1.82,13.68c-1.14.61-1.17-1.94-2.34-.89a2.62,2.62,0,0,0-.22,3.31c1.79,3.21,3.72,6.35,5.76,9.4,3.92,5.88,10.55,10.17,9.51,18.83-.36,3-.79,4.72-3.83,4.49-5.39-.42-10.28,1.68-15.37,2.73-3.16.66-4.36-.5-4-3.3s-.45-5.47-1.12-8.06c-.63-2.41-2.52-4.76-5.12-4.56-2.78.21-3.56,2.8-3.26,5.46s-.61,5.34-1.47,8c-2.8,8.48,3.21,18.87,11.59,19.87a113.28,113.28,0,0,0,16.86,1c4.82-.15,6.2,2.79,7.1,6.33,1.89,7.49,3.8,15,5.18,22.6.6,3.3,2.36,6.11,2.91,9.3.33,2,.3,3.87,1.05,5.9a38.6,38.6,0,0,1,2.64,11.74c.33,8.77,1.9,17.32,3.33,25.93a24.68,24.68,0,0,1-1.17,12.79c-1.68,4.46-5.67,7.17-7.76,11.35-4.32,8.64-9.43,16.89-13.24,25.78-2.21,5.15-5.22,9.92-6.45,15.55-.83,3.78-2.43,7.66-6.14,9.69-4.73,2.61-9,5.89-13.92,8.26-7.68,3.71-14.11,8.78-18.81,16.39-2.85,4.61-2.6,9.74-4.85,14.27-1.86,3.73-16.29,6.13-18.76,2.89a7,7,0,0,1-.7-2.42c-1.78-7.06-.32-14,.78-21,2.43-15.2,9.42-29.2,11.77-44.42,1.71-11.07,2.72-22.06-3.67-32.29-2.11-3.37-4.52-7.42-7.78-8.35-10-2.87-17.93,1.93-24,9.68-8.45,10.78-5.2,23.25-3,34.66,1.65,8.43,3.32,17,4.76,25.45s.42,17.41.28,26.15c-.12,8.22-5.37,13.69-13.59,13.33-5.68-.24-11.35-1.61-16.93-2.87-14.5-3.26-28.45-8.74-43.22-10.94-.59,2.39-1.53,4.29-4,5.53-4.37,2.2-5.47,7.08-6.44,11A168.53,168.53,0,0,1,19.56,294c-2.28,5.71-3.91,9.6-.68,15.18,1,1.74-.76,4.92-.9,7.62-.77,14.38,4.49,27.19,9.53,40.1,1.46,3.73,3.62,7.24,3.23,11.48.55.52,1.54.74,1.28,1.84q1.21,2.38,2.42,4.79c3,4,5.48,8.08,3.36,13.35l.27,2.89c2.42,1.82,2.16,3.69.1,5.6l0,1.56c4.1,1.78,1.53,5.49,2,8.15.87,4.78.38,9.81.42,14.74a1.65,1.65,0,0,1-1.9,1.84l-.05.05.06,2.35c2.83,5.61-1.32,10.41-1.79,15.64C36,451.4,33.11,461.22,35,472c2.4,13.84,9.35,25.6,13.82,38.43,3.42,9.8,9,18.47,12.41,28.17a2.28,2.28,0,0,0,.47.9c5.72,5.3,4.76,11.18,3,18.14-4,15.66-5.7,31.79-7.48,47.85-.87,7.85-.45,15.66,2.62,23.1,1.58,3.83,1.73,7.89,2.19,11.91.67,5.93,1.94,11.7,5.2,16.79,2.28,3.54,2.48,7.66,2.07,11.33-1.48,13.31-3.07,26.61-6,39.76a155.62,155.62,0,0,0-3.64,20.38c-.65,7.48-3.2,14.82-5.17,22.15-4.87,18.13-9.16,36.4-8.56,55.29.19,5.9-.78,12,1.51,17.9,1.53,4-2.25,5.36-5,5.88-13.49,2.57-25.87,7.33-36.2,16.69a7.46,7.46,0,0,1-2.31.93c-1.05,1.21-1.62,1.31-2,1-.27.53-.55,1.05-.86,1.56a.35.35,0,0,0-.05.08c-.31.5-.63,1-1,1.46H0a3.3,3.3,0,0,0,.45,0c2.87-.07,5.76,1,8.6,0-.36-4.9,2.39-3,4-2.59-1.14,0-2.43.37-2.31,2.74,9.71,1.35,19.45.77,29.18.35,1.59-1.34,3-3.65,5.23-.75l19.41.18,6.75-5c2.7-5.64-.16-11.58,1.32-17.55a528.89,528.89,0,0,0,10-54.22,9.94,9.94,0,0,1,3.06-6.22c5.15-5,7.52-12.1,12.19-17.41,6.74-7.68,8.36-17.24,10.89-26.52,1.24-4.57.27-9.25-.15-13.79-.66-7.14-1.32-14.28-1.89-21.42-.41-5.2-2.18-10.2-1.76-15.62,1.07-13.86,6-26.64,10.25-39.65,2.27-6.87,3.5-14.09,5.07-21.18,2.06-9.27,3.63-18.67,6.14-27.81,1.42-5.18,5.82-9.19,7.18-14.59,1.07-4.26,1.86-8.59,4.7-12.21.84-1.08,1.22-2.65,2.9-2.37s1.78,1.85,2.36,3.08c7.65,16,10.68,33.27,13.51,50.56,2.31,14.12,5.15,28.16,9.76,41.66,2.74,8,8.14,15,14.53,20.77,5,4.59,7.28,8.88,5.32,16.68a173.66,173.66,0,0,0-5.49,37.06c-.29,9.3,4.3,17,8.73,24.42a97.63,97.63,0,0,0,15.37,19.67,8.5,8.5,0,0,1,2.72,5.91c.36,11.25.58,22.59,2.83,33.59s1.59,22,1.2,33.09c-.08,2.08-.1,4.15,1.83,5.59.94.72,2.21,1.44,1.51,2.86-.47,1-1.25.87-2,.71.13.42.25.84.35,1.27l1.87-.13a115.08,115.08,0,0,1,23.79.39c9.51,1.17,19.25.43,28.89.52l3.27.1c2.22,0,4.92-1.62,6.17,1.77a.79.79,0,0,1,.76.08l.51-1.77C278.34,850,273.74,852.9,272.48,850.05ZM97.35,473.69c-2.55,11-7.07,21.18-11.12,31.57-.64,1.65-1.54,3.46-3.39,3.35-2.06-.12-2.3-2.36-2.61-3.95a167.53,167.53,0,0,0-12-37.6,34.94,34.94,0,0,1-3.44-18c-.36-5.9-1.81-12.09-.85-17.89,1.84-11-.36-22.1,1.45-33.11,1-6.11.08-12.52.37-18.78a125.62,125.62,0,0,0,0-16.69c-.17-1.93,0-4.16,2.15-4.67s2.92,1.65,3.36,3.22C75.13,375,81.84,388,84.15,402.39c.81,5.08,3.07,9.92,4.17,15,2.15,9.95,5.34,19.65,7.18,29.69a92.94,92.94,0,0,0,3.23,12.15C100.41,464.37,98.46,468.89,97.35,473.69ZM133.21,433c-3.35-.13-8.22-6.29-7.93-10.95s4.73-4.82,8-5.31c3.75-.56,6,2.92,6.09,8.66C139.48,429.18,136.31,433.09,133.21,433Z"/></g></g></svg>